# xmcd
#
# Track frame offsets: 
#        150
#        19652
#        37720
#        58065
#        83875
#        110627
#        133687
#
# Disc length: 2073 seconds
#
# Revision: 2
# Processed by: cddbd v1.5.2PL0 Copyright (c) Steve Scherf et al.
# Submitted via: ExactAudioCopyFreeDBPlugin 1.0
#
DISCID=53081707
DTITLE=Various Artist - Super Smooth 94.7 KTWV - The Wave (Compliment
DTITLE=s of Volvo)
DYEAR=2000
DGENRE=Jazz
TTITLE0=Al Jarreau - Just To Be Loved
TTITLE1=Jeff Golub - No Two Ways About It
TTITLE2=David Benoit - Red Baron
TTITLE3=Joe Sample - When  Your Life Was Low
TTITLE4=George Benson - Deeper Than You Think
TTITLE5=Marc Antoine - Palm Springs
TTITLE6=Kombo - Talk The Talk
EXTD=YEAR: 2002
EXTT0=
EXTT1=
EXTT2=
EXTT3=
EXTT4=
EXTT5=
EXTT6=
PLAYORDER=
